<svg xmlns="http://www.w3.org/2000/svg">
  <defs>
    <symbol id="humidity" viewBox="0 0 24 24">
      <path d="M11.234 14.141c0 .714-.138 1.249-.414 1.608-.276.358-.681.538-1.215.538-.512 0-.907-.184-1.187-.552-.278-.367-.418-.899-.418-1.594 0-1.418.535-2.127 1.606-2.127.524 0 .927.184 1.208.552.28.368.42.893.42 1.575zm-2.061.01c0 .394.035.688.105.882.07.194.182.291.337.291.298 0 .447-.391.447-1.173 0-.776-.149-1.163-.447-1.163-.155 0-.268.095-.337.286-.07.19-.105.483-.105.877zm5.263-2.039l-3.774 6.804h-1.117l3.774-6.804h1.117zm1.564 4.747c0 .711-.138 1.245-.414 1.603-.276.359-.681.538-1.215.538-.512 0-.908-.184-1.187-.552-.279-.368-.419-.897-.419-1.589 0-1.418.535-2.127 1.606-2.127.524 0 .927.184 1.208.552.281.367.421.893.421 1.575zm-2.062.009c0 .394.035.688.105.882.07.194.182.291.337.291.298 0 .447-.391.447-1.173 0-.776-.149-1.163-.447-1.163-.155 0-.268.095-.337.286-.07.191-.105.484-.105.877zm-1.938-11.308c2.725 5.186 6 6.718 6 10.515 0 3.267-2.691 5.925-6 5.925s-6-2.658-6-5.925c0-3.797 3.274-5.327 6-10.515zm0-5.56c-2.333 8.958-8 10.188-8 16.075 0 4.378 3.579 7.925 8 7.925 4.421 0 8-3.547 8-7.925 0-5.887-5.667-7.117-8-16.075z"/>
    </symbol>
    <symbol id="wind" viewBox="0 0 24 24">
      <path d="M12.481 1l-7.481 1.438v-2.438h-2v24h2v-16.967l.75 3.902 13.006 3.98 2.244-3.312-8.519-10.603zm-7.162 2.395l6.369-1.225-5.145 7.594-1.224-6.369zm4.019 7.592l4.521-6.674 1.311 1.631-3.831 5.655-2.001-.612zm7.004 2.143l-2.001-.612 2.795-4.127 1.311 1.631-2.105 3.108z"/>
    </symbol>
    <symbol id="location" viewBox="0 0 24 24">
      <path d="M12 10c-1.104 0-2-.896-2-2s.896-2 2-2 2 .896 2 2-.896 2-2 2m0-5c-1.657 0-3 1.343-3 3s1.343 3 3 3 3-1.343 3-3-1.343-3-3-3m-7 2.602c0-3.517 3.271-6.602 7-6.602s7 3.085 7 6.602c0 3.455-2.563 7.543-7 14.527-4.489-7.073-7-11.072-7-14.527m7-7.602c-4.198 0-8 3.403-8 7.602 0 4.198 3.469 9.21 8 16.398 4.531-7.188 8-12.2 8-16.398 0-4.199-3.801-7.602-8-7.602"/>
    </symbol>
    <symbol id="search" viewBox="0 0 24 24">
      <path d="M21.172 24l-7.387-7.387c-1.388.874-3.024 1.387-4.785 1.387-4.971 0-9-4.029-9-9s4.029-9 9-9 9 4.029 9 9c0 1.761-.514 3.398-1.387 4.785l7.387 7.387-2.828 2.828zm-12.172-8c3.859 0 7-3.14 7-7s-3.141-7-7-7-7 3.14-7 7 3.141 7 7 7z"/>
    </symbol>
    <symbol id="toggle" viewBox="0 0 24 24">
      <path d="M17 8c.552 0 1 .449 1 1s-.448 1-1 1-1-.449-1-1 .448-1 1-1zm0-2c-1.657 0-3 1.343-3 3s1.343 3 3 3 3-1.343 3-3-1.343-3-3-3zm-10 6c-1.657 0-3 1.343-3 3s1.343 3 3 3 3-1.343 3-3-1.343-3-3-3zm10-8c.343 0 .677.035 1 .101v-2.101c0-.552-.447-1-1-1s-1 .448-1 1v2.101c.323-.066.657-.101 1-.101zm-10 6c.343 0 .677.035 1 .101v-8.101c0-.552-.447-1-1-1s-1 .448-1 1v8.101c.323-.066.657-.101 1-.101zm10 4c-.343 0-.677-.035-1-.101v8.101c0 .552.447 1 1 1s1-.448 1-1v-8.101c-.323.066-.657.101-1 .101zm-10 6c-.343 0-.677-.035-1-.101v2.101c0 .552.447 1 1 1s1-.448 1-1v-2.101c-.323.066-.657.101-1 .101z"/>
    </symbol>
    <symbol id="reload" viewBox="0 0 24 24">
      <path d="m3.508 6.726c1.765-2.836 4.911-4.726 8.495-4.726 5.518 0 9.997 4.48 9.997 9.997 0 5.519-4.479 9.999-9.997 9.999-5.245 0-9.553-4.048-9.966-9.188-.024-.302.189-.811.749-.811.391 0 .715.3.747.69.351 4.369 4.012 7.809 8.47 7.809 4.69 0 8.497-3.808 8.497-8.499 0-4.689-3.807-8.497-8.497-8.497-3.037 0-5.704 1.597-7.206 3.995l1.991.005c.414 0 .75.336.75.75s-.336.75-.75.75h-4.033c-.414 0-.75-.336-.75-.75v-4.049c0-.414.336-.75.75-.75s.75.335.75.75z"/>
    </symbol>
  </defs>
</svg>